<svg  class="hidden">
  <symbol  xmlns="http://www.w3.org/2000/svg" viewBox="0 0 512 512" id="support">
    <path fill="#c97902" d="M255.107 65.06c5.562 0 10.071-4.509 10.071-10.071V10.071C265.178 4.509 260.669 0 255.107 0s-10.071 4.509-10.071 10.071v44.918c.001 5.562 4.51 10.071 10.071 10.071zM501.28 345.985l-17.791-17.741c-6.329-6.321-14.764-9.803-23.752-9.803-5.747 0-11.264 1.43-16.153 4.109l-33.526-33.486 1.633-1.631c13.601-13.628 13.596-35.773-.001-49.355a34.57 34.57 0 00-17.531-9.48 35.171 35.171 0 001.389-9.798c0-9.355-3.634-18.127-10.212-24.678a34.575 34.575 0 00-17.531-9.48 35.166 35.166 0 001.389-9.798c0-9.356-3.634-18.127-10.223-24.688a34.735 34.735 0 00-17.516-9.455c3.436-11.847.5-25.176-8.82-34.512-7.758-7.725-18.285-11.045-28.43-9.969L237.77 83.645c-10.132-1.922-22.785-3.193-30.772 4.092-.504.46-1.018.989-1.524 1.578-12.384-4.514-26.828-1.826-36.745 8.08-6.579 6.571-10.203 15.339-10.203 24.689 0 3.368.477 6.657 1.386 9.799a34.52 34.52 0 00-17.5 9.459c-6.592 6.565-10.227 15.323-10.234 24.662a35.112 35.112 0 001.39 9.826 34.596 34.596 0 00-17.522 9.45c-6.592 6.585-10.222 15.358-10.222 24.703 0 7.158 2.137 13.977 6.097 19.737a34.71 34.71 0 00-13.415 8.347c-13.61 13.593-13.615 35.739.009 49.387l1.627 1.62-33.53 33.469c-12.461-5.867-27.814-3.669-38.097 6.601l-17.802 17.752C4.381 353.22.895 361.656.894 370.649c0 8.994 3.487 17.431 9.819 23.756l22.217 22.19c3.935 3.931 10.312 3.927 14.242-.008 3.931-3.935 3.927-10.312-.008-14.242l-22.217-22.19c-2.522-2.519-3.911-5.895-3.911-9.505 0-3.609 1.389-6.984 3.905-9.497L42.744 343.4c4.448-4.443 11.256-5.105 16.426-2.014a10.023 10.023 0 004.161 3.563l102.093 101.943a10.04 10.04 0 002.02 2.922 10.024 10.024 0 002.835 1.984 13.325 13.325 0 013.352 8.885c0 3.61-1.389 6.985-3.911 9.504l-17.785 17.764c-5.255 5.232-13.803 5.231-19.042.016l-22.217-22.219c-3.933-3.933-10.309-3.933-14.242 0s-3.933 10.309 0 14.242l22.233 22.235c6.544 6.517 15.138 9.774 23.736 9.774 8.6 0 17.204-3.262 23.756-9.785l17.796-17.775c6.332-6.325 9.819-14.761 9.819-23.756 0-6.419-1.785-12.549-5.104-17.835l37.736-37.69.121-.123c4.321-4.467 16.354-3.631 27.991-2.823 8.268.575 17.486 1.214 26.492.176l41.324 41.275c-2.677 4.881-4.106 10.391-4.106 16.129 0 8.985 3.487 17.416 9.819 23.741l17.797 17.775c6.328 6.321 14.763 9.803 23.751 9.803 8.987 0 17.422-3.481 23.751-9.803l107.941-107.81c6.332-6.324 9.819-14.76 9.819-23.754-.001-8.993-3.488-17.429-9.826-23.759zm-267.26-242.55l43.687 8.269-26.149 26.139c-4.045-1.944-9.589-5.57-15.671-11.388-8.325-7.964-14.28-17.159-14.822-22.894l-.001-.009-.001-.003a8.798 8.798 0 01-.044-.992c1.317-.32 4.815-.675 13.001.878zm-51.058 8.211c5.102-5.097 13.028-5.685 18.793-1.781 3.267 13.698 14.952 26.113 20.209 31.143 3.896 3.728 16.397 14.905 29.015 17.977a14.685 14.685 0 012.636 8.442c0 3.965-1.525 7.672-4.304 10.448-2.771 2.776-6.484 4.304-10.456 4.304-3.973 0-7.686-1.528-10.47-4.317l-.001-.001-.005-.005-45.418-45.336c-2.769-2.765-4.294-6.472-4.294-10.436.001-3.965 1.526-7.672 4.295-10.438zm-26.316 43.947c2.771-2.775 6.48-4.304 10.446-4.304 3.971 0 7.692 1.532 10.481 4.318l36.572 36.499c5.759 5.768 5.759 15.154.02 20.902-2.786 2.775-6.512 4.303-10.491 4.303s-7.705-1.528-10.479-4.291l-.001-.001-27.745-27.739c-.043-.043-.09-.083-.134-.127l-8.68-8.676c-2.785-2.782-4.318-6.496-4.315-10.458.004-3.949 1.532-7.644 4.326-10.426zm-26.366 43.938c2.773-2.769 6.49-4.294 10.468-4.294 3.945 0 7.63 1.503 10.391 4.224l27.83 27.817c2.775 2.764 4.304 6.467 4.304 10.427 0 3.959-1.529 7.662-4.315 10.437-2.772 2.768-6.485 4.293-10.456 4.293-3.977 0-7.702-1.529-10.478-4.293l-10.089-10.077-.007-.007-17.647-17.626c-2.782-2.779-4.314-6.491-4.314-10.451 0-3.959 1.532-7.672 4.313-10.45zm-17.54 52.786c2.785-2.782 6.507-4.314 10.48-4.314 3.972 0 7.693 1.531 10.477 4.311l10.103 10.091c2.776 2.764 4.304 6.467 4.304 10.427s-1.529 7.662-4.325 10.448c-2.771 2.775-6.484 4.304-10.456 4.304-3.973 0-7.686-1.528-10.477-4.324l-1.265-1.26c-.017-.017-.03-.035-.046-.051l-.058-.052-8.727-8.693c-5.759-5.771-5.764-15.14-.01-20.887zm205.234 114.458c-3.931-3.936-10.308-3.939-14.242-.009l-8.96 8.949c-8.514 8.514-23.941 7.442-38.86 6.407-16.201-1.126-32.954-2.288-43.795 8.842l-37.095 37.05-92.763-92.627 32.828-32.769c5.426 3.326 11.687 5.109 18.238 5.109 9.359 0 18.135-3.628 24.69-10.195 6.599-6.572 10.234-15.343 10.234-24.699 0-.087-.006-.173-.006-.26.087.001.174.006.261.006 9.346 0 18.115-3.617 24.679-10.173 6.599-6.572 10.234-15.344 10.234-24.699 0-.087-.006-.173-.006-.26.088 0 .176.006.265.006 9.343 0 18.117-3.613 24.725-10.194 6.86-6.871 10.253-15.917 10.188-24.944.09.001.18.006.27.006 9.359-.001 18.134-3.628 24.699-10.205 6.579-6.571 10.203-15.339 10.203-24.689 0-6.539-1.778-12.79-5.093-18.205l28.773-28.761a14.775 14.775 0 017.559-4.028c.3-.032.596-.08.889-.138 4.446-.613 9.115.759 12.515 4.145 5.759 5.769 5.759 15.155.021 20.903l-8.763 8.727c-.029.029-.06.055-.089.084L299.48 160.23c-3.936 3.93-3.94 10.307-.009 14.242 3.932 3.936 10.308 3.939 14.242.009l8.798-8.786.006-.006 1.33-1.325c5.775-5.722 15.131-5.71 20.9.051 2.776 2.764 4.305 6.467 4.305 10.427 0 3.959-1.529 7.662-4.327 10.448l-8.813 8.831-.003.004-10.092 10.051c-3.941 3.925-3.954 10.302-.029 14.242 3.925 3.941 10.301 3.953 14.242.029l10.138-10.097c2.771-2.776 6.484-4.304 10.456-4.304 3.973 0 7.687 1.528 10.478 4.324 2.776 2.765 4.304 6.468 4.304 10.428 0 3.959-1.528 7.662-4.32 10.442l-17.57 17.577c-3.932 3.934-3.931 10.31.002 14.242a10.038 10.038 0 007.12 2.948c2.578 0 5.156-.984 7.122-2.951l8.611-8.614c.049-.047.102-.088.151-.137 2.771-2.776 6.484-4.304 10.456-4.304 3.973 0 7.686 1.528 10.467 4.314 5.753 5.747 5.748 15.117 0 20.875l-8.755 8.745-.01.009-.009.01-13.896 13.879c-3.935 3.931-3.939 10.308-.009 14.243a10.042 10.042 0 007.126 2.954c2.575 0 5.151-.982 7.117-2.945l6.797-6.789 32.577 32.539-92.755 92.642-33.234-33.194a39.602 39.602 0 006.615-5.323l8.955-8.944c3.937-3.929 3.941-10.306.01-14.241zm169.078 12.472l-107.941 107.81c-2.525 2.522-5.905 3.911-9.517 3.911s-6.992-1.389-9.518-3.912l-17.797-17.775c-2.522-2.518-3.911-5.888-3.911-9.489 0-3.6 1.389-6.97 3.911-9.489l107.941-107.81c2.526-2.523 5.905-3.912 9.518-3.912 3.612 0 6.992 1.389 9.524 3.918l17.791 17.741c2.522 2.519 3.911 5.893 3.911 9.503-.001 3.611-1.39 6.986-3.912 9.504zM121.378 56.57a10.039 10.039 0 007.114 2.942c2.58 0 5.161-.986 7.128-2.957 3.929-3.937 3.923-10.313-.014-14.242L98.908 5.688c-3.936-3.929-10.313-3.924-14.242.014-3.929 3.937-3.923 10.313.014 14.242zm260.344 2.942c2.575 0 5.151-.982 7.117-2.945l36.67-36.626c3.935-3.93 3.939-10.307.008-14.242-3.93-3.935-10.306-3.939-14.242-.008l-36.67 36.626c-3.935 3.93-3.939 10.307-.008 14.242a10.039 10.039 0 007.125 2.953z"></path>
    <path fill="#c97902" d="M62.819 433.204c-3.899 3.966-3.845 10.343.122 14.242l.029.028a10.005 10.005 0 007.038 2.882c2.607 0 5.214-1.009 7.189-3.018 3.899-3.966 3.83-10.357-.136-14.256-3.965-3.899-10.341-3.844-14.242.122zm279.787-80.937c1.532 0 3.086-.349 4.545-1.084 4.966-2.505 6.961-8.561 4.457-13.527-2.505-4.966-8.562-6.962-13.527-4.457l-.056.028c-4.966 2.505-6.933 8.547-4.429 13.513 1.768 3.508 5.324 5.527 9.01 5.527z"></path>
  </symbol>
  <symbol  xmlns="http://www.w3.org/2000/svg" viewBox="0 0 512 512" id="training">
    <path  fill="#c97902" d="M278.333 459h-44.166c-5.522 0-10 4.478-10 10s4.478 10 10 10h44.166c5.522 0 10-4.478 10-10s-4.477-10-10-10zM359.07 75.321c-1.859-1.859-4.439-2.93-7.069-2.93s-5.21 1.07-7.07 2.93-2.93 4.44-2.93 7.07c0 2.641 1.069 5.21 2.93 7.07 1.86 1.87 4.44 2.93 7.07 2.93s5.209-1.059 7.069-2.93c1.86-1.86 2.931-4.44 2.931-7.07s-1.07-5.201-2.931-7.07z"></path>
    <path  fill="#c97902" d="M502 153.988c5.522 0 10-4.478 10-10V82.394c0-3.904-2.243-7.278-5.506-8.924-.049-.027-.093-.055-.147-.082l-150-72.394a9.996 9.996 0 00-8.693 0l-150 72.394a10 10 0 000 18.012l58.462 28.215v61.85c0 .469.038.932.102 1.388h-2.779c-18.374 0-33.323 14.949-33.323 33.324 0 18.374 14.949 33.323 33.323 33.323h3.23c3.039 28.346 18.479 53.031 40.773 68.514h-93.158a36.07 36.07 0 00-16.283 3.863v-147.58c0-8.979 7.305-16.283 16.283-16.283h25.832c5.522 0 10-4.478 10-10s-4.478-10-10-10h-25.832c-10.336 0-19.668 4.351-26.283 11.309-6.615-6.958-15.947-11.309-26.283-11.309H10c-5.522 0-10 4.478-10 10v219.014c0 5.522 4.478 10 10 10h11.997V426H10c-5.522 0-10 4.478-10 10v18c0 31.981 26.019 58 58 58h396c31.981 0 58-26.019 58-58v-18c0-5.522-4.478-10-10-10h-12.003V279c0-5.522-4.478-10-10-10s-10 4.478-10 10v147h-428v-48.973H346c5.522 0 10-4.478 10-10v-32.021c47.581-1.963 86.321-38.76 91.332-85.506h3.23c18.374 0 33.323-14.949 33.323-33.323 0-18.375-14.949-33.324-33.323-33.324h-2.779c.064-.456.102-.918.102-1.388v-61.85L492 98.324v45.664c0 5.523 4.478 10 10 10zm-245.885 75.513h-2.677c-7.346 0-13.323-5.976-13.323-13.323s5.977-13.324 13.323-13.324h2.677v26.647zM20 158.014h131.717c8.979 0 16.283 7.305 16.283 16.283v147.58a36.06 36.06 0 00-16.283-3.863H20v-160zM492 446v8c0 20.953-17.047 38-38 38H58c-20.953 0-38-17.047-38-38v-8h472zM20 357.027v-19.013h131.717c8.979 0 16.283 7.305 16.283 16.283 0 .948.141 1.862.387 2.73H20zm427.885-154.174h2.677c7.346 0 13.323 5.978 13.323 13.324 0 7.347-5.977 13.323-13.323 13.323h-2.677v-26.647zM336 357.029H187.613v-.001a9.965 9.965 0 00.387-2.73c0-8.979 7.305-16.283 16.283-16.283H336v19.014zm91.883-117.818c.002 41.844-34.04 75.886-75.883 75.886-41.843 0-75.885-34.042-75.885-75.886v-42.42l71.857 31.614a10.005 10.005 0 008.054 0l71.857-31.614v42.42zm.002-64.27L352 208.326l-75.885-33.386v-45.672l71.538 34.526a9.993 9.993 0 008.694 0l71.538-34.526v45.673zm-47.76-82.547h78.148L352 143.685l-126.993-61.29L352 21.104l106.273 51.29h-78.148c-5.522 0-10 4.478-10 10 0 5.523 4.478 10 10 10z"></path>
    <path fill="#c97902" d="M509.069 181.52c-1.859-1.859-4.439-2.93-7.069-2.93s-5.21 1.07-7.07 2.93c-1.86 1.86-2.93 4.44-2.93 7.07s1.069 5.21 2.93 7.07c1.86 1.859 4.44 2.93 7.07 2.93s5.21-1.07 7.069-2.93c1.86-1.86 2.931-4.44 2.931-7.07s-1.07-5.209-2.931-7.07zM133.88 254.93a10.093 10.093 0 00-7.07-2.93c-2.63 0-5.21 1.069-7.069 2.93-1.87 1.87-2.931 4.44-2.931 7.07s1.061 5.21 2.931 7.069A10.014 10.014 0 00126.81 272c2.63 0 5.21-1.061 7.07-2.931a10.056 10.056 0 002.93-7.069c0-2.63-1.069-5.21-2.93-7.07zM89 252.017H57c-5.522 0-10 4.478-10 10s4.478 10 10 10h32c5.522 0 10-4.478 10-10s-4.477-10-10-10zm37.807-48.005H57c-5.522 0-10 4.478-10 10s4.478 10 10 10h69.807c5.522 0 10-4.478 10-10s-4.478-10-10-10z"></path>
  </symbol>
  <symbol  xmlns="http://www.w3.org/2000/svg" viewBox="0 0 512 512" id="contacts-book">
    <path fill="#c97902" d="M452.648 111H411V26.806c0-3.314-3.1-5.806-6.419-5.806H59.352C56.038 21 53 23.492 53 26.806v458.388c0 3.314 3.038 5.806 6.352 5.806h393.3c3.314 0 6.352-2.492 6.352-5.806V116.53c-.004-3.313-3.042-5.53-6.356-5.53zM97 479H65V33h32zm302 0H109V33h290zm48 0h-36v-70h36zm0-82h-36v-70h36zm0-82h-36v-90h36zm0-102h-36v-90h36z"></path>
    <path fill="#c97902" d="M127 54h12v15h-12zm0 27h12v145h-12zm53.809 249h146.315c3.314 0 5.876-3.156 5.876-6.47v-53.136a81.492 81.492 0 00-38.252-68.853 52.579 52.579 0 10-81.533 0A81.455 81.455 0 00175 270.394v53.136c0 3.314 2.5 6.47 5.809 6.47zm73.157-202.038a40.555 40.555 0 11-40.555 40.556 40.6 40.6 0 0140.555-40.556zM187 270.394a69.361 69.361 0 0135.126-60.178 52.205 52.205 0 0063.738 0A69.368 69.368 0 01321 270.394V318H187zM278 369h12v33h-12zm-31 0h12v33h-12zm-30 0h12v33h-12zm-31 0h12v33h-12zm-31 0h12v33h-12zm154 0h12v33h-12zm30 0h12v33h-12z"></path>
  </symbol>
  <symbol  xmlns="http://www.w3.org/2000/svg" viewBox="0 0 420.96 420.96" id="headphones">
    <path fill="#c97902" d="M354.48 144c0-79.529-64.471-144-144-144s-144 64.471-144 144c-20.56 2.56-40 16-40 47.2v75.2c0 35.2 24.64 48 48 48h23.2a8 8 0 008-8V151.52a8 8 0 00-8-8h-15.2c0-70.692 57.308-128 128-128s128 57.308 128 128h-15.2a8 8 0 00-8 8v154.64a8 8 0 008 8h15.2c-2.24 54.96-28.64 67.84-81.36 70.16v-5.36c0-8.837-7.163-16-16-16H190.8c-8.837 0-16 7.163-16 16v26c0 8.837 7.163 16 16 16h50.48c8.837 0 16-7.163 16-16v-4.64c50.72-2.32 94.56-12.8 97.2-86.64 20.56-2.56 40-16 40-47.2v-75.2c0-31.36-19.36-44.72-40-47.28zm-264.8 14.96v139.2h-15.6c-11.84 0-32-4.16-32-32v-75.2c0-27.6 19.92-32 32-32h15.6zm151.6 233.92v12.16H190.8v-26h50.48v13.84zm137.2-126.48c0 27.6-19.92 32-32 32h-15.2V159.52h15.6c11.84 0 32 4.16 32 32l-.4 74.88z"></path>
  </symbol>
  <symbol  xmlns="http://www.w3.org/2000/svg" viewBox="0 0 512.001 512.001" id="media">
    <path fill="#c97902" d="M193.07 176c-1.859-1.86-4.439-2.93-7.069-2.93s-5.21 1.07-7.07 2.93c-1.86 1.87-2.93 4.44-2.93 7.07s1.069 5.21 2.93 7.08c1.86 1.86 4.44 2.92 7.07 2.92s5.21-1.06 7.069-2.92a10.118 10.118 0 002.931-7.08c0-2.62-1.07-5.2-2.931-7.07z"></path>
    <path fill="#c97902" d="M439.001 0h-190c-40.252 0-73 32.748-73 73v71.5c0 5.523 4.478 10 10 10s10-4.477 10-10V73c0-29.224 23.775-53 53-53h190c29.225 0 53 23.776 53 53v120c0 29.224-23.775 53-53 53h-56.719c-2.167 0-4.276.704-6.009 2.006l-30.554 22.967V256c0-5.523-4.478-10-10-10H249c-5.522 0-10 4.477-10 10s4.478 10 10 10h76.719v25a10.002 10.002 0 0016.009 7.994L385.621 266h53.38c40.252 0 73-32.748 73-73V73c-.001-40.252-32.748-73-73-73z"></path>
    <path fill="#c97902" d="M336.934 389.535c0-14.039-8.952-26.025-21.446-30.556a32.282 32.282 0 003.392-14.432c0-17.917-14.576-32.493-32.493-32.493h-65.315l8.739-25.947c4.343-12.893 3.305-26.654-2.922-38.75s-16.823-20.936-29.838-24.893l-12.174-3.701a10.002 10.002 0 00-12.313 6.165l-19.128 52.866a62.12 62.12 0 01-28.732 33.451l-12.318 6.708c-1.566-3.476-5.054-5.9-9.114-5.9H10c-5.522 0-10 4.477-10 10V502c0 5.523 4.478 10 10 10h93.271c5.208 0 9.482-3.982 9.953-9.068l3.808 1.493a109.276 109.276 0 0040.063 7.576H270.7c17.917 0 32.493-14.576 32.493-32.493a32.283 32.283 0 00-3.484-14.611c12.244-4.661 20.97-16.516 20.97-30.375a32.296 32.296 0 00-3.691-15.016c11.705-4.918 19.946-16.499 19.946-29.971zM93.272 492H20V332.054h30.75v102.083c0 5.523 4.478 10 10 10s10-4.477 10-10V332.054h22.521V492zm211.166-89.971h-63.731c-5.522 0-10 4.477-10 10s4.478 10 10 10h47.477c6.889 0 12.493 5.604 12.493 12.494.001 6.888-5.604 12.493-12.492 12.493h-47.477c-5.522 0-10 4.477-10 10s4.478 10 10 10H270.7c6.889 0 12.493 5.604 12.493 12.493s-5.604 12.493-12.493 12.493H157.096a89.353 89.353 0 01-32.761-6.195l-11.063-4.339V340.245l20.997-11.434a82.106 82.106 0 0037.975-44.211l15.898-43.939 3.091.939c7.797 2.371 14.145 7.666 17.874 14.912 3.729 7.246 4.352 15.489 1.751 23.212l-13.183 39.139a10 10 0 009.476 13.192h79.235c6.889 0 12.493 5.604 12.493 12.493s-5.604 12.493-12.493 12.493h-45.678c-5.522 0-10 4.477-10 10s4.478 10 10 10l63.731.002c6.889 0 12.493 5.604 12.493 12.493s-5.604 12.493-12.494 12.493z"></path>
    <path fill="#c97902" d="M60.75 454.415c-5.522 0-10 4.477-10 10v.131c0 5.523 4.478 10 10 10s10-4.477 10-10v-.131c0-5.523-4.477-10-10-10zM401.731 44.563a10.004 10.004 0 00-9.332-.989L280.047 88.822h-29.72c-22.662 0-41.1 18.437-41.1 41.099 0 17.269 10.711 32.073 25.834 38.147v37.042c.001 5.523 4.478 10 10.001 10h36.92c5.522 0 10-4.477 10-10v-29.273l100.421 40.389a10.005 10.005 0 009.33-.992 10 10 0 004.401-8.286V52.85a10 10 0 00-4.403-8.287zM271.982 195.11h-16.92v-24.09h16.92v24.09zm0-44.09h-21.655c-11.635 0-21.1-9.465-21.1-21.099.001-11.634 9.465-21.099 21.1-21.099h21.657l-.002 42.198zm20.002-45.445l94.149-37.917v124.489l-94.149-37.867v-48.705zm170.517 14.613h-20.606c-5.522 0-10 4.477-10 10s4.478 10 10 10h20.606c5.522 0 10-4.478 10-10 0-5.523-4.478-10-10-10zm-10.871-62.29c-3.905-3.905-10.235-3.905-14.142 0l-16.714 16.714c-3.905 3.905-3.905 10.237 0 14.143 1.953 1.953 4.512 2.929 7.071 2.929s5.118-.976 7.071-2.929l16.714-16.714c3.905-3.905 3.905-10.237 0-14.143zm.628 129.635l-17.272-17.273c-3.905-3.905-10.235-3.904-14.142 0-3.905 3.905-3.905 10.237 0 14.142l17.272 17.273c1.953 1.953 4.512 2.929 7.071 2.929s5.118-.977 7.071-2.929c3.905-3.905 3.905-10.237 0-14.142z"></path>
  </symbol>
  <symbol  xmlns="http://www.w3.org/2000/svg" viewBox="0 0 512 512" id="leader">
    <path  fill="#c97902" d="M479.074 364.996l-46.877-15.424v-16.236c16.323-9.793 27.274-27.66 27.274-48.041V252.97c0-30.872-25.116-55.988-55.988-55.988-14.45 0-27.639 5.504-37.582 14.524l-12.458-17.342a108.424 108.424 0 005.616-13.5l36.544-5.992a7.5 7.5 0 006.286-7.401v-42.76a7.5 7.5 0 00-6.288-7.401l-36.541-5.983a108.27 108.27 0 00-5.618-13.5l21.619-30.1a7.499 7.499 0 00-.788-9.678l-30.229-30.23a7.502 7.502 0 00-9.68-.788L304.273 48.45a109.058 109.058 0 00-13.499-5.613l-5.993-36.548A7.5 7.5 0 00277.38 0h-42.76a7.5 7.5 0 00-7.401 6.286l-5.994 36.548a109.058 109.058 0 00-13.499 5.613l-30.09-21.619a7.497 7.497 0 00-9.679.788l-30.23 30.23a7.5 7.5 0 00-.788 9.679l21.619 30.099a108.094 108.094 0 00-5.618 13.5l-36.542 5.983a7.5 7.5 0 00-6.288 7.401v42.76a7.5 7.5 0 006.286 7.401l36.544 5.992a108.506 108.506 0 005.617 13.501l-12.459 17.342c-9.943-9.02-23.131-14.524-37.582-14.524-30.872 0-55.988 25.116-55.988 55.988v32.325c0 20.381 10.951 38.248 27.274 48.041v16.235l-46.876 15.424A47.812 47.812 0 000 410.5v56.62a7.5 7.5 0 007.5 7.5h31.786a7.5 7.5 0 000-15H15V410.5a32.835 32.835 0 0122.614-31.256l43.912-14.449c4.014 11.022 14.597 18.914 26.99 18.914 12.392 0 22.975-7.892 26.989-18.914l43.914 14.45c.876.288 1.732.625 2.578.985l-14.758 3.956c-25.312 6.784-42.99 29.825-42.99 56.03v19.404H74.328a7.5 7.5 0 000 15h49.922v29.88a7.5 7.5 0 007.5 7.5h248.5a7.5 7.5 0 007.5-7.5v-29.88h49.922c4.143 0 7.5-3.358 7.5-7.5s-3.357-7.5-7.5-7.5H387.75v-19.404c0-26.206-17.678-49.246-42.99-56.03l-14.758-3.956c.847-.36 1.704-.698 2.582-.986l43.91-14.449c4.014 11.022 14.597 18.914 26.989 18.914 12.393 0 22.976-7.893 26.99-18.914l43.913 14.45A32.833 32.833 0 01497 410.5v49.12h-24.286c-4.143 0-7.5 3.358-7.5 7.5s3.357 7.5 7.5 7.5H504.5a7.5 7.5 0 007.5-7.5V410.5a47.805 47.805 0 00-32.926-45.504zm-75.591-153.014c22.601 0 40.988 18.387 40.988 40.988v32.325c0 22.601-18.388 40.988-40.988 40.988s-40.987-18.387-40.987-40.988V252.97c0-22.601 18.387-40.988 40.987-40.988zm-229.571-20.835a93.298 93.298 0 01-7.997-19.222 7.501 7.501 0 00-5.991-5.316L125.11 160.9v-30.019l34.812-5.7a7.5 7.5 0 005.993-5.319 93.156 93.156 0 017.997-19.22 7.5 7.5 0 00-.47-8.008l-20.604-28.686 21.22-21.22 28.676 20.603a7.5 7.5 0 008.009.47 93.954 93.954 0 0119.231-8 7.5 7.5 0 005.307-5.988L240.99 15h30.02l5.709 34.814a7.5 7.5 0 005.307 5.988 93.765 93.765 0 0119.23 8 7.499 7.499 0 008.01-.47l28.677-20.603 21.22 21.22-20.604 28.686a7.5 7.5 0 00-.47 8.007 93.147 93.147 0 017.996 19.221 7.499 7.499 0 005.993 5.318l34.812 5.7V160.9l-34.813 5.708a7.5 7.5 0 00-5.99 5.316 93.402 93.402 0 01-7.997 19.223 7.498 7.498 0 00.471 8.008l17.415 24.241a55.675 55.675 0 00-6.214 13.846l-11.819 11.819-15.852-11.388v-24.1c0-9.454-4.442-17.885-11.343-23.333 10.103-12.479 15.763-28.162 15.763-44.35 0-38.879-31.631-70.51-70.51-70.51s-70.51 31.631-70.51 70.51c0 14.538 4.536 28.721 12.872 40.552a47.632 47.632 0 00-8.452 27.131v24.099l-15.853 11.389-11.818-11.818a55.72 55.72 0 00-6.215-13.847l17.416-24.241a7.498 7.498 0 00.471-8.008zm49.669 193.467c2.555 8.784 8.584 16.101 16.501 20.352l-13.544 11.287-.043.036-8.796 7.33-9.648-34.841zm27.673 71.827h9.594L275.597 497h-38.265zm10.377-15h-11.262l-9.513-17.594L256 411.226l15.144 12.62zm23.873-25.154l-.04-.033-13.545-11.288c7.917-4.251 13.946-11.568 16.501-20.352l15.53 4.163-9.649 34.841zm-10.739-41.088c0 10.347-8.418 18.764-18.765 18.764s-18.764-8.417-18.764-18.764v-20.483a65.856 65.856 0 0037.529-.001zM256 342.445c-28.171 0-51.089-22.919-51.089-51.09V260.47H256c7.962 0 15.145-3.381 20.203-8.777 5.058 5.396 12.241 8.777 20.203 8.777h10.684v30.886c0 28.17-22.919 51.089-51.09 51.089zm-51.089-128.872c0-18.145 14.762-32.907 32.906-32.907h20.204c5.891 0 10.683 4.792 10.683 10.683v41.417c0 7.005-5.698 12.704-12.703 12.704h-51.089v-31.897zM256 165.396c-10.754 0-19.503-8.749-19.503-19.503S245.246 126.39 256 126.39s19.503 8.749 19.503 19.503-8.749 19.503-19.503 19.503zm27.703 33.454h8.663c8.118 0 14.724 6.605 14.724 14.724v31.896h-10.684c-7.005 0-12.703-5.699-12.703-12.704zm8.663-15h-9.783a25.688 25.688 0 00-6.036-10.258c8.462-6.294 13.955-16.366 13.955-27.699 0-19.025-15.478-34.503-34.503-34.503s-34.503 15.478-34.503 34.503a34.329 34.329 0 006.922 20.706 47.705 47.705 0 00-19.427 8.74c-5.516-8.787-8.501-19-8.501-29.448 0-30.608 24.901-55.51 55.51-55.51s55.51 24.902 55.51 55.51c0 14.214-5.549 27.935-15.319 38.214a29.617 29.617 0 00-3.825-.255zM67.528 285.295V252.97c0-22.601 18.387-40.988 40.988-40.988s40.988 18.387 40.988 40.988v32.325c0 22.601-18.387 40.988-40.988 40.988s-40.988-18.387-40.988-40.988zm40.988 83.414c-7.562 0-13.713-6.152-13.713-13.713v-15.418c4.39 1.11 8.983 1.705 13.713 1.705s9.323-.595 13.713-1.705v15.418c0 7.562-6.151 13.713-13.713 13.713zm75.588-3.713l-46.875-15.424v-16.236c16.323-9.793 27.274-27.66 27.274-48.041v-24.574l3.453 3.453a7.49 7.49 0 005.306 2.197 7.484 7.484 0 004.374-1.409l12.275-8.818v35.213c0 24.112 12.986 45.241 32.325 56.784v21.305l-20.924 5.608c-4.959-4.507-10.821-7.96-17.208-10.058zm-44.854 75.22c0-19.429 13.107-36.512 31.874-41.542l22.439-6.014 12.783 46.161a7.5 7.5 0 0012.03 3.76l10.726-8.938 8.637 15.973L221.472 497h-28.683v-12.703a7.5 7.5 0 00-15 0V497H139.25zm233.5 0V497h-38.539v-12.703c0-4.142-3.357-7.5-7.5-7.5s-7.5 3.358-7.5 7.5V497h-27.653l-17.256-47.456 8.598-15.901 10.725 8.938a7.501 7.501 0 0012.029-3.76l12.783-46.161 22.439 6.015c18.768 5.03 31.874 22.112 31.874 41.541zm-44.85-75.221c-6.391 2.099-12.254 5.553-17.213 10.059l-20.923-5.608V348.14c19.339-11.543 32.325-32.672 32.325-56.784v-35.212l12.274 8.818a7.477 7.477 0 004.374 1.409 7.49 7.49 0 005.306-2.197l3.452-3.452v24.574c0 20.381 10.951 38.248 27.274 48.041v16.236zm75.583 3.714c-7.562 0-13.713-6.152-13.713-13.713v-15.418c4.39 1.11 8.983 1.705 13.713 1.705s9.323-.595 13.714-1.705v15.418c0 7.562-6.152 13.713-13.714 13.713z"></path>
  </symbol>
  <symbol xmlns="http://www.w3.org/2000/svg" viewBox="0 0 24 24" id="facebook">
    <path d="M15.997 3.985h2.191V.169C17.81.117 16.51 0 14.996 0c-3.159 0-5.323 1.987-5.323 5.639V9H6.187v4.266h3.486V24h4.274V13.267h3.345l.531-4.266h-3.877V6.062c.001-1.233.333-2.077 2.051-2.077z"></path>
  </symbol>
  <symbol xmlns="http://www.w3.org/2000/svg" viewBox="0 0 511 511.9" id="instagram">
    <path d="M510.95 150.5c-1.2-27.2-5.598-45.898-11.9-62.102-6.5-17.199-16.5-32.597-29.6-45.398-12.802-13-28.302-23.102-45.302-29.5-16.296-6.3-34.898-10.7-62.097-11.898C334.648.3 325.949 0 256.449 0s-78.199.3-105.5 1.5c-27.199 1.2-45.898 5.602-62.097 11.898-17.204 6.5-32.602 16.5-45.403 29.602-13 12.8-23.097 28.3-29.5 45.3-6.3 16.302-10.699 34.9-11.898 62.098C.75 177.801.449 186.5.449 256s.301 78.2 1.5 105.5c1.2 27.2 5.602 45.898 11.903 62.102 6.5 17.199 16.597 32.597 29.597 45.398 12.801 13 28.301 23.102 45.301 29.5 16.3 6.3 34.898 10.7 62.102 11.898 27.296 1.204 36 1.5 105.5 1.5s78.199-.296 105.5-1.5c27.199-1.199 45.898-5.597 62.097-11.898a130.934 130.934 0 0074.903-74.898c6.296-16.301 10.699-34.903 11.898-62.102 1.2-27.3 1.5-36 1.5-105.5s-.102-78.2-1.3-105.5zm-46.098 209c-1.102 25-5.301 38.5-8.801 47.5-8.602 22.3-26.301 40-48.602 48.602-9 3.5-22.597 7.699-47.5 8.796-27 1.204-35.097 1.5-103.398 1.5s-76.5-.296-103.403-1.5c-25-1.097-38.5-5.296-47.5-8.796C94.551 451.5 84.45 445 76.25 436.5c-8.5-8.3-15-18.3-19.102-29.398-3.5-9-7.699-22.602-8.796-47.5-1.204-27-1.5-35.102-1.5-103.403s.296-76.5 1.5-103.398c1.097-25 5.296-38.5 8.796-47.5C61.25 94.199 67.75 84.1 76.352 75.898c8.296-8.5 18.296-15 29.398-19.097 9-3.5 22.602-7.7 47.5-8.801 27-1.2 35.102-1.5 103.398-1.5 68.403 0 76.5.3 103.403 1.5 25 1.102 38.5 5.3 47.5 8.8 11.097 4.098 21.199 10.598 29.398 19.098 8.5 8.301 15 18.301 19.102 29.403 3.5 9 7.699 22.597 8.8 47.5 1.2 27 1.5 35.097 1.5 103.398s-.3 76.301-1.5 103.301zm0 0"></path>
    <path d="M256.45 124.5c-72.598 0-131.5 58.898-131.5 131.5s58.902 131.5 131.5 131.5c72.6 0 131.5-58.898 131.5-131.5s-58.9-131.5-131.5-131.5zm0 216.8c-47.098 0-85.302-38.198-85.302-85.3s38.204-85.3 85.301-85.3c47.102 0 85.301 38.198 85.301 85.3s-38.2 85.3-85.3 85.3zm167.402-222c0 16.954-13.747 30.7-30.704 30.7-16.953 0-30.699-13.746-30.699-30.7 0-16.956 13.746-30.698 30.7-30.698 16.956 0 30.703 13.742 30.703 30.699zm0 0"></path>
  </symbol>
</svg>